<svg width="1440" height="976" viewBox="0 0 1440 976" fill="none" xmlns="http://www.w3.org/2000/svg">
<g clip-path="url(#clip0_4_2020)">
<path d="M911.466 -55.2072C918.976 -140.569 1088.68 -135.622 1137.51 -136.538C1190.67 -137.515 1392.87 -143.623 1392 -67.9428C1392 -67.729 1392 -67.4541 1392 -67.2403C1391.47 -38.715 1358.94 -15.8398 1319.89 -16.5728C1305.15 -16.8477 1291.54 -20.3599 1280.29 -26.1932C1272.09 -5.24211 1245.42 9.78407 1214.1 9.20379C1212.92 9.20379 1211.67 9.17325 1210.49 9.11217C1210.67 10.8835 1210.71 12.6244 1210.67 14.4263C1209.9 56.5423 1160.54 89.7709 1100.46 88.6715C1040.41 87.572 992.36 52.572 993.139 10.456C993.139 9.69244 993.17 8.86784 993.264 8.07378C946.896 4.83643 908.6 -22.681 911.466 -55.1766V-55.2072Z" fill="white" fill-opacity="0.4"/>
<path d="M930.506 -55.1461C937.392 -133.087 1092.29 -128.567 1136.85 -129.391C1185.34 -130.277 1369.88 -135.835 1369.1 -66.7822C1369.1 -66.5684 1369.1 -66.3546 1369.1 -66.1409C1368.6 -40.0894 1338.93 -19.2604 1303.32 -19.9018C1289.89 -20.1461 1277.39 -23.3529 1267.14 -28.6671C1259.69 -9.54839 1235.32 4.19505 1206.75 3.64532C1205.63 3.64532 1204.54 3.58424 1203.48 3.52316C1203.66 5.14182 1203.66 6.7605 1203.63 8.40971C1202.88 46.8608 1157.86 77.1575 1103.01 76.1497C1048.2 75.1418 1004.39 43.1654 1005.11 4.7448C1005.11 4.04235 1005.11 3.27883 1005.2 2.57638C962.882 -0.386093 927.888 -25.4908 930.506 -55.1461Z" fill="white"/>
<path d="M284.541 27.5206C284.541 57.9478 262.497 82.659 235.315 82.659C229.412 82.659 223.783 81.4938 218.547 79.3392C218.586 79.691 218.586 80.0647 218.586 80.4385C218.586 113.218 194.855 139.776 165.653 139.776C147.983 139.776 132.332 130.059 122.722 115.131C111.995 123.595 98.9919 128.52 84.8909 128.52C80.1644 128.52 75.5164 127.948 71.0644 126.871C58.8854 149.449 36.763 164.575 11.5224 164.575C-25.054 164.575 -55.0407 132.895 -57.7668 92.6841H-58.4728C-89.3617 92.6841 -114.406 64.5873 -114.406 29.9609C-114.406 -4.66545 -89.3617 -32.7623 -58.4728 -32.7623C-48.5688 -32.7623 -39.2727 -29.8603 -31.2318 -24.8037C-31.2906 -26.1448 -31.3298 -27.5079 -31.3298 -28.8709C-31.3298 -78.7329 4.71704 -119.141 49.2167 -119.141C81.7922 -119.141 109.798 -97.5081 122.487 -66.3334C132.215 -72.8849 143.55 -76.6004 155.71 -76.6004C185.285 -76.6004 210.231 -54.4395 217.978 -24.1222C223.371 -26.4306 229.196 -27.6837 235.295 -27.6837C262.478 -27.6837 284.521 -2.97261 284.521 27.4986L284.541 27.5206Z" fill="white" fill-opacity="0.4"/>
<path d="M268.734 18.8805C268.734 48.4503 247.317 72.4579 220.9 72.4579C215.154 72.4579 209.701 71.3147 204.622 69.2261C204.661 69.5779 204.661 69.9516 204.661 70.3034C204.661 102.16 181.617 127.926 153.239 127.926C136.078 127.926 120.859 118.516 111.524 104.006C101.11 112.207 88.4601 117.022 74.7709 117.022C70.1817 117.022 65.6513 116.45 61.3171 115.417C49.4714 137.358 27.9963 152.044 3.48127 152.044C-32.0557 152.044 -61.1991 121.265 -63.8467 82.2193H-64.5332C-94.5395 82.1973 -118.858 54.9139 -118.858 21.2549C-118.858 -12.4042 -94.5395 -39.6656 -64.5332 -39.6656C-54.9037 -39.6656 -45.8821 -36.8735 -38.057 -31.9488C-38.1158 -33.246 -38.155 -34.5431 -38.155 -35.8841C-38.155 -84.3391 -3.12798 -123.604 40.0969 -123.604C71.731 -123.604 98.9721 -102.587 111.308 -72.2913C120.761 -78.645 131.783 -82.2725 143.589 -82.2725C172.341 -82.2725 196.542 -60.7272 204.073 -31.2673C209.309 -33.5098 214.997 -34.7189 220.92 -34.7189C247.317 -34.7189 268.734 -10.7333 268.734 18.8805Z" fill="white"/>
<path d="M1287.08 395.498C1293.72 394.157 1300.91 392.559 1305.27 387.416C1312.91 378.504 1308.83 363.011 1317.5 355.089C1324.2 348.924 1334.76 350.809 1343.62 353.045L1365.76 358.635C1368.07 359.242 1370.61 359.785 1372.79 358.763C1374.68 357.836 1375.81 355.92 1376.83 354.099C1383.8 341.769 1391.37 329.821 1399.52 318.258C1403.89 312.093 1409.34 305.512 1416.92 305.033C1432.51 304.043 1438.1 328.288 1453.27 331.994C1456 332.664 1458.89 332.569 1461.52 333.527C1469.93 336.657 1471.12 347.774 1470.89 356.686C1481.35 355.856 1491.66 364.64 1492.43 375.086C1506.1 370.486 1521.11 382.274 1526.38 395.69C1527.69 399.012 1528.78 402.654 1531.48 404.922C1538.09 410.448 1553.46 411.119 1558.95 417.731C1463.32 418.626 1248.18 420.415 1205.5 419.073C1205.5 419.073 1258.71 401.184 1287.08 395.466V395.498Z" fill="white" fill-opacity="0.4"/>
<path d="M1297.76 403.165C1303.79 401.951 1310.24 400.45 1314.26 395.786C1321.16 387.704 1317.47 373.681 1325.33 366.493C1331.42 360.903 1340.99 362.628 1349.01 364.64L1369.1 369.72C1371.19 370.231 1373.5 370.774 1375.45 369.815C1377.19 369.017 1378.21 367.228 1379.14 365.567C1385.43 354.418 1392.3 343.589 1399.68 333.08C1403.63 327.49 1408.6 321.484 1415.44 321.037C1429.59 320.142 1434.66 342.12 1448.43 345.474C1450.9 346.081 1453.5 346.017 1455.87 346.912C1463.48 349.723 1464.57 359.849 1464.38 367.931C1473.88 367.164 1483.18 375.118 1483.89 384.573C1496.28 380.421 1509.92 391.122 1514.7 403.261C1515.88 406.263 1516.85 409.586 1519.32 411.63C1525.29 416.645 1536.33 411.726 1541.27 417.731C1454.56 418.562 1259.51 420.159 1220.84 418.945C1220.84 418.945 1271.99 408.244 1297.73 403.069L1297.76 403.165Z" fill="white"/>
<path d="M681.595 975.22C681.281 976.14 680.261 978.84 680.045 979.42L679.633 979.9L677.966 979.18L676.318 974.72L676.691 974.4C676.691 974.4 677.476 973.5 679.064 973.52C679.869 973.52 680.614 973.58 681.144 973.76C681.418 974.02 681.83 974.54 681.595 975.24V975.22Z" fill="#444444"/>
<path d="M673.965 975.56L676.711 974.42L677.77 974.52C679.084 974.62 680.085 975.64 680.085 976.84L679.849 978.84C679.81 979.12 679.692 979.36 679.477 979.56L678.829 980.18L674.651 982.9L673.965 975.56Z" fill="#0C0000"/>
<path d="M665.569 961.26L679.496 962.02L678.81 976.76L665.314 975.16L665.569 961.26Z" fill="#FFBA38"/>
<path d="M685.832 972.8L678.81 976.76L679.496 962.02L686.675 959.32L685.832 972.8Z" fill="#FFC400"/>
<path d="M665.569 961.26L673.474 958.72L686.675 959.32L679.496 962.02L665.569 961.26Z" fill="#FCD363"/>
<path d="M686.538 961.58L679.378 964.38L679.496 962.02L686.675 959.3L686.538 961.58Z" fill="#FFEDB2"/>
<path d="M676.848 975.84C676.848 975.84 678.868 979.3 673.827 984.36C673.572 984.62 673.533 984.98 673.69 985.3C674.318 986.46 675.789 989.2 675.946 990.12C676.162 991.32 676.593 993.02 676.593 993.02C676.593 993.02 675.887 994.88 672.866 994.26C672.866 994.26 670.179 988.48 669.12 986.76C667.786 984.62 667.982 983.38 668.629 982.28L666.079 979.22L665.53 974.58L676.829 975.82L676.848 975.84Z" fill="#002619"/>
<path d="M658.92 964.64L657.88 965.18L655.644 967.24C655.644 967.24 655.644 967.5 654.507 967.78C653.369 968.06 651.447 970.72 651.447 970.72L654.644 972.3L660.764 967.26L658.94 964.64H658.92Z" fill="#683A28"/>
<path d="M657.88 965.18C657.88 965.18 659.391 961.78 661.352 961.62C663.314 961.46 670.65 960.38 670.65 960.38C670.65 960.38 671.827 960.06 672.984 960.92C674.141 961.78 674.534 962.34 675.181 965.06C675.181 965.06 675.416 967.36 675.593 968.16C675.73 968.74 676.456 971.12 676.593 973.68C676.593 973.68 676.789 975.16 677.182 976.2C677.574 977.24 677.201 977.1 677.201 977.1C677.201 977.1 677.476 975.58 671.16 975.62C664.824 975.66 664.059 975.56 664.059 975.56L664.648 974.2C664.648 974.2 664.059 972.84 664.314 972C664.314 972 661.548 968.58 661.49 966.86L660.783 967.52C660.783 967.52 659.234 965.3 657.861 965.18H657.88Z" fill="#AFEDD6"/>
<path d="M669.61 981.16L668.629 983.12C668.629 983.12 668.649 982.98 668.531 982.78C668.394 982.5 668.021 982.18 667.256 982.14C666.354 982.08 663.471 981.96 661.803 981.9C661.077 981.86 660.587 981.84 660.587 981.84L658.822 979.9L657.821 978.8L656.88 977.78C656.88 977.78 657.076 977.54 657.39 977.22C658.292 976.24 660.273 974.34 661.529 974.44C663.216 974.58 666.57 974.34 667.354 975.76C668.139 977.16 670.61 979.18 669.63 981.16H669.61Z" fill="#444444"/>
<path d="M662.667 976.66C662.667 976.66 662.667 976.26 662.667 975.9C662.667 975.48 663.098 975.2 663.53 975.3L665.805 975.9L664.02 978.66C663.726 979.12 663.137 979.36 662.568 979.28C662.568 979.28 661.431 978.8 661.019 978.72C660.529 978.62 659.077 978.72 659.077 978.72L658.077 975.68L658.194 975.28C658.273 975.02 658.528 974.86 658.802 974.86H659.352L659.45 974.26C659.489 974.02 659.744 973.86 660.019 973.92L661.509 974.24C661.823 974.32 662.019 974.6 661.96 974.88L661.686 976.24L662.686 976.66H662.667Z" fill="#333333"/>
<path d="M661.137 981.5L658.685 976.2C658.43 975.66 657.704 975.44 657.174 975.76L655.998 976.48L656.841 980.52L661.137 981.5Z" fill="#0C0000"/>
<path d="M662.255 980.98L661.784 981.9L661.313 982.9C661.176 983.16 660.96 983.36 660.666 983.46C660.097 983.68 658.979 984.08 657.606 984.58C655.35 985.38 652.349 986.38 649.544 987.14C646.464 987.98 643.64 988.54 642.385 988.2C639.815 987.52 640.992 984.1 641.482 981.72C642.424 977.28 644.895 974.8 645.817 974C646.033 973.82 646.308 973.7 646.602 973.66L658.469 972.44C658.469 972.44 657.057 974.68 657.351 977.22C657.41 977.72 657.527 978.2 657.743 978.7C657.743 978.74 657.763 978.76 657.782 978.8C658.018 979.3 658.39 979.66 658.802 979.9C659.763 980.48 661.019 980.5 661.803 980.44C662.117 980.42 662.353 980.72 662.235 980.98H662.255Z" fill="#333333"/>
<path d="M681.948 974.66C681.889 975.28 681.811 976.36 681.752 977C681.713 977.34 681.595 977.66 681.36 977.94L680.045 979.44C680.261 978.86 681.281 976.14 681.595 975.24C681.83 974.56 681.399 974.02 681.124 973.76C681.654 973.92 682.007 974.22 681.948 974.68V974.66Z" fill="#FFC400"/>
<path d="M637.069 970.84L641.384 971.24C641.384 971.24 642.483 971.08 640.815 969.1C639.148 967.1 636.696 966.3 635.872 967.04C635.049 967.8 635.715 969.84 637.069 970.84Z" fill="#333333"/>
<path d="M639.854 970.36L642.875 970.54L642.836 971.06L639.834 970.88L639.854 970.36Z" fill="#333333"/>
<path d="M645.582 976.36L645.111 976.54L642.385 970.72L642.875 970.54L645.582 976.36Z" fill="#333333"/>
<path d="M665.373 972.7L661.039 972.56C661.039 972.56 659.96 972.3 661.862 970.52C663.765 968.74 666.276 968.22 667.021 969.06C667.766 969.9 666.864 971.86 665.393 972.7H665.373Z" fill="#333333"/>
<path d="M662.627 972.38L659.626 972.2L659.646 971.66L662.666 971.84L662.627 972.38Z" fill="#333333"/>
<path d="M656.272 977.1L656.723 977.34L660.117 971.92L659.665 971.68L656.272 977.1Z" fill="#333333"/>
<path d="M669.257 959.3C671.16 960.3 668.335 965.9 666.433 964.9C664.53 963.9 667.355 958.3 669.257 959.3Z" fill="#683A28"/>
<path d="M670.67 960.36C670.67 960.36 672.808 954.16 668.492 952.44C664.177 950.7 660.509 952.72 660.372 955.68L660.234 955.8C660.117 955.9 660.058 956.08 660.077 956.24L660.509 960.4C660.548 960.66 660.627 960.88 660.823 961.08L661.058 961.32C661.058 961.32 661.686 964.26 663.863 964.22C667.963 964.14 670.689 960.38 670.689 960.38L670.67 960.36Z" fill="#FFC400"/>
<path d="M668.433 960.06C666.55 961.36 663.588 962.74 661.058 961.36V961.32L660.803 961.08C660.626 960.88 660.509 960.66 660.47 960.4L660.058 956.24C660.038 956.1 660.077 955.94 660.175 955.84C660.254 956.1 660.725 956.5 663.157 956.54C665.236 956.56 667.472 956.4 668.924 956.26C669.061 957.04 669.218 958.78 668.433 960.06Z" fill="#FFEDB2"/>
<path d="M670.316 958.44C670.179 958.64 669.492 959.34 668.433 960.06C669.237 958.78 669.041 957.06 668.904 956.26C669.885 956.16 670.532 956.08 670.532 956.08C670.532 956.08 670.689 957.86 670.297 958.44H670.316Z" fill="black"/>
<path d="M670.14 956.48C670.454 956.5 670.395 957.46 670.081 957.44C669.767 957.42 669.826 956.46 670.14 956.48Z" fill="#FFC400"/>
<path d="M645.837 976.08L646.739 973.16C647.759 970.2 649.917 969.28 654.036 970.32L658.822 972.2L653.055 977L645.837 976.06V976.08Z" fill="#444444"/>
<path d="M674.298 967.56C674.298 967.56 674.553 969.98 672.847 973.56C671.14 977.14 670.689 976.62 670.689 976.62L670.414 977.4L669.434 977.34L669.041 978.54L667.727 978.2L667.649 976.74L667.001 977.62L666.884 978.28L666.217 978.72L665.864 978.58L665.981 977.92L665.471 978.16L665.432 976.76L666.276 975.2L668.374 975.46L670.199 971.16L670.512 968.3L674.278 967.56H674.298Z" fill="#683A28"/>
<path d="M670.493 968.62C670.493 968.62 672.298 967.66 674.612 968.2L674.495 964.56L669.708 965.46L670.513 968.58L670.493 968.62Z" fill="#AFEDD6"/>
<path d="M674.298 968.16L674.259 968.72L674.847 968.34C674.847 968.34 674.71 968.24 674.298 968.16Z" fill="#003F2B"/>
<path d="M1440.54 877.96L1439.51 888.021C1439.48 888.222 1439.54 888.417 1439.66 888.574C1439.99 889.019 1440.67 888.987 1440.97 888.52L1445.42 881.518L1440.54 877.96Z" fill="#444444"/>
<path d="M1444.55 875.904C1444.55 875.904 1441.3 875.405 1440.25 875.855C1439.89 876.012 1439.78 876.495 1439.77 876.967C1439.75 877.618 1440.05 878.231 1440.58 878.61C1442.12 879.728 1445.72 882.277 1447.29 882.841C1449.45 883.617 1457.55 883.714 1457.55 883.714L1457.74 882.337L1444.55 875.898V875.904Z" fill="#333333"/>
<path d="M1441.23 860.158L1439.75 873.203C1439.66 873.908 1440.17 874.543 1440.88 874.624C1444.2 874.998 1453.1 876.04 1456.27 876.408C1456.89 876.479 1457.46 876.023 1457.52 875.4L1458.8 861.845L1441.23 860.158Z" fill="#FFC40C"/>
<path d="M161.559 915.489L169.138 915.321L169.665 917.937L159.539 918.556L161.559 915.489Z" fill="#1E1E1E"/>
<path d="M163.55 916.502L156.801 928.768L155 927.846L161.981 915.511L163.55 916.502Z" fill="#444444"/>
<path d="M191.888 929.844L180.664 924.478L166.801 925.687L165.119 928.17L166.238 938.67C166.238 938.67 169.538 942.278 172.656 943.474C176.526 944.958 189.172 944.592 189.172 944.592L191.902 929.844H191.888Z" fill="#0C0000"/>
<path d="M199.91 951.695C193.499 951.695 188.299 946.498 188.299 940.091C188.299 933.684 193.499 928.486 199.91 928.486C206.321 928.486 211.514 933.684 211.514 940.091C211.514 946.498 206.321 951.695 199.91 951.695Z" fill="#303030"/>
<path d="M199.91 948.172C195.449 948.172 191.825 944.55 191.825 940.091C191.825 935.625 195.449 932.01 199.91 932.01C204.379 932.01 207.996 935.625 207.996 940.091C207.996 944.55 204.379 948.172 199.91 948.172Z" fill="#0C0000"/>
<path d="M199.912 949.429C194.756 949.429 190.576 945.246 190.576 940.093C190.576 934.939 194.756 930.767 199.912 930.767C205.068 930.767 209.248 934.939 209.248 940.093C209.248 945.246 205.068 949.429 199.912 949.429Z" stroke="#3D3D3D" stroke-width="1.07635" stroke-miterlimit="10"/>
<path d="M160.081 911.326L162.079 913.928L156.513 915.349L160.081 911.326Z" fill="#1E1E1E"/>
<path d="M184.232 916.91L180.875 918.134L181.368 919.716L184.921 917.951L184.232 916.91Z" fill="#00160F"/>
<path d="M185.913 901.135C185.913 901.135 184.879 902.943 183.429 904.11C181.973 905.278 171.086 909.3 171.086 909.3C171.086 909.3 172.67 909.568 172.754 910.433L184.506 906.283L187.539 902.169L185.913 901.135Z" fill="#FFB2CE"/>
<path d="M168.968 927.931C168.539 928.247 168.42 928.838 168.694 929.281C169.496 930.589 170.728 932.931 171.115 935.576C171.72 939.655 171.875 939.043 171.875 939.043L174.697 936.237C174.697 936.237 174.007 929.851 175.21 927.354C175.21 927.354 174.232 924.956 171.558 926.159C169.834 926.939 169.433 927.6 168.968 927.945V927.931Z" fill="#333333"/>
<path d="M193.295 944.993C193.295 944.993 190.825 945.682 188.017 945.816C184.203 945.985 171.818 945.999 167.659 941.181C163.888 936.828 165.759 933.881 165.759 933.881L166.78 934.464C166.78 934.464 165.098 939.732 171.382 942.292C177.666 944.852 189.523 943.164 189.523 943.164L193.295 945.007V944.993Z" fill="#1C1C1C"/>
<path d="M166.865 927.509C166.865 927.509 167.35 932.748 168.835 935.147C170.32 937.545 172.431 938.642 172.431 938.642L173.036 940.822C173.036 940.822 172.332 942.349 171.396 942.13C170.46 941.92 168.173 940.274 167.083 936.785C165.992 933.29 164.95 934.05 164.402 930.343C163.853 926.637 164.134 927.34 164.134 927.34L166.865 927.495V927.509Z" fill="#333333"/>
<path d="M211.69 921.172L212.732 931.194C212.746 931.398 212.697 931.581 212.57 931.743C212.239 932.186 211.564 932.165 211.275 931.686L206.877 924.71L211.711 921.158L211.69 921.172Z" fill="#444444"/>
<path d="M207.728 919.118C207.728 919.118 210.965 918.612 211.986 919.069C212.344 919.231 212.45 919.709 212.478 920.18C212.492 920.828 212.183 921.446 211.669 921.819C210.142 922.923 206.581 925.469 205.026 926.032C202.894 926.813 194.85 926.911 194.85 926.911L194.667 925.526L207.728 919.118Z" fill="#333333"/>
<path d="M148.927 951.695C142.193 951.695 136.732 946.231 136.732 939.5C136.732 932.77 142.193 927.312 148.927 927.312C155.661 927.312 161.129 932.77 161.129 939.5C161.129 946.231 155.661 951.695 148.927 951.695Z" fill="#303030"/>
<path d="M148.934 947.996C144.24 947.996 140.426 944.198 140.426 939.5C140.426 934.809 144.24 931.004 148.934 931.004C153.628 931.004 157.435 934.809 157.435 939.5C157.435 944.198 153.628 947.996 148.934 947.996Z" fill="#0C0000"/>
<path d="M148.929 949.308C143.508 949.308 139.123 944.919 139.123 939.502C139.123 934.085 143.508 929.696 148.929 929.696C154.349 929.696 158.74 934.085 158.74 939.502C158.74 944.919 154.349 949.308 148.929 949.308Z" stroke="#3D3D3D" stroke-width="1.07635" stroke-miterlimit="10"/>
<path d="M183.563 919.449C183.563 919.449 179.038 916.27 177.455 915.581C175.006 914.505 171.122 914.758 169.151 915.321C167.631 915.75 162.403 918.211 162.403 918.211L159.187 924.217C159.187 924.217 158.821 925.434 159.109 925.849C160.278 927.544 165.583 928.697 167.596 928.451C172.226 927.861 183.563 919.449 183.563 919.449Z" fill="#028C5B"/>
<path d="M149.216 944.838C146.577 944.838 144.438 942.7 144.438 940.063C144.438 937.425 146.577 935.287 149.216 935.287C151.854 935.287 153.994 937.425 153.994 940.063C153.994 942.7 151.854 944.838 149.216 944.838Z" fill="#A89B75"/>
<path d="M149.187 943.199C147.379 943.199 145.908 941.73 145.908 939.922C145.908 938.115 147.379 936.638 149.187 936.638C150.996 936.638 152.467 938.115 152.467 939.922C152.467 941.73 150.996 943.199 149.187 943.199Z" fill="#0C0000"/>
<path d="M200.304 944.838C197.665 944.838 195.526 942.7 195.526 940.063C195.526 937.425 197.665 935.287 200.304 935.287C202.943 935.287 205.082 937.425 205.082 940.063C205.082 942.7 202.943 944.838 200.304 944.838Z" fill="#A89B75"/>
<path d="M200.269 943.199C198.46 943.199 196.99 941.73 196.99 939.922C196.99 938.115 198.46 936.638 200.269 936.638C202.077 936.638 203.548 938.115 203.548 939.922C203.548 941.73 202.077 943.199 200.269 943.199Z" fill="#0C0000"/>
<path d="M156.379 929.302L150.109 940.71C149.849 941.188 149.251 941.371 148.758 941.125C148.258 940.865 148.068 940.232 148.343 939.732L154.796 928.311L156.365 929.302H156.379Z" fill="#444444"/>
<path d="M149.321 940.422C149.096 940.422 148.913 940.246 148.913 940.021C148.913 939.796 149.096 939.62 149.321 939.62C149.546 939.62 149.722 939.796 149.722 940.021C149.722 940.246 149.546 940.422 149.321 940.422Z" fill="#0C0000"/>
<path d="M162.009 940.218C162.009 940.218 162.67 934.289 160.369 931.525C158.068 928.761 154.845 926.046 150.7 926.102C146.556 926.159 142.15 928.662 142.15 928.662C142.15 928.662 142.15 929.422 145.275 929.021C148.399 928.62 151.158 929.119 151.819 931.061L152.382 932.903L155.141 931.722C155.141 931.722 158.42 931.919 159.644 934.584C160.869 937.243 160.566 939.803 162.009 940.203V940.218Z" fill="#1E1E1E"/>
<path d="M153.009 921.911C153.009 921.911 153.367 922.065 153.959 922.178C153.945 921.819 153.832 919.583 154.12 918.415C154.423 917.191 158.842 914.427 159.243 914.181C156.752 914.716 153.536 915.637 152.741 916.931C151.418 919.119 152.995 921.918 152.995 921.918L153.009 921.911Z" fill="#FFC400"/>
<path d="M169.229 911.08C169.229 911.08 166.485 910.13 165.633 910.475C164.198 911.066 161.995 915.504 161.995 915.504L161.538 915.018C161.538 915.018 163.867 909.343 165.506 909.251C167.146 909.167 169.574 910.173 169.574 910.173L169.229 911.066V911.08Z" fill="#565656"/>
<path d="M153.98 922.164C155.26 922.396 157.646 922.403 159.835 920.04C163.029 916.587 162.34 913.612 162.34 913.612C162.34 913.612 160.982 913.802 159.286 914.16C158.87 914.42 154.465 917.177 154.163 918.401C153.874 919.569 153.98 921.805 154.008 922.164H153.98Z" fill="#333333"/>
<path d="M160.193 909.589L153.494 916.228L158.068 914.371C158.068 914.371 161.2 912.564 160.193 909.589Z" fill="#444444"/>
<path d="M194.055 924.147L199.783 938.368L198.376 938.902L192.753 924.52L194.055 924.147Z" fill="#444444"/>
<path d="M170.094 904.047C170.094 904.047 170.467 903.372 170.622 902.134C170.72 901.332 170.467 900.601 170.467 900.601C170.383 900.298 170.01 900.2 169.777 900.411C169.777 900.411 168.264 901.177 167.73 902.38C167.526 902.83 167.877 903.85 167.877 903.85C168.067 904.293 168.497 904.595 168.968 904.624L169.39 904.652C169.735 904.652 170.024 904.391 170.094 904.047Z" fill="#444444"/>
<path d="M168.968 904.624L167.73 904.377L165.527 909.209L165.288 908.864L167.371 904.279L167.73 902.38L168.968 904.624Z" fill="#444444"/>
<path d="M166.477 903.069L166.435 906.558C166.435 906.558 165.344 906.966 164.781 906.115C164.218 905.264 165.675 902.619 166.477 903.069Z" fill="#444444"/>
<path d="M169.665 909.223C169.665 909.223 165.528 908.168 164.824 908.773C164.12 909.378 161.573 913.724 161.573 913.724L162.319 913.619C162.319 913.619 164.479 909.582 165.429 909.483C166.379 909.385 169.264 910.187 169.264 910.187L169.665 909.237V909.223Z" fill="#444444"/>
<path d="M195.435 935.273C195.681 934.915 195.505 934.422 195.09 934.31C194.815 934.239 194.47 934.268 194.14 934.598C193.323 935.414 191.578 938.192 189.608 938.248C187.638 938.305 186.99 936.61 185.956 936.94C184.921 937.271 180.551 939.184 180.551 939.184C180.551 939.184 180.931 943.326 183.162 943.052C185.393 942.777 190.375 941.807 191.74 940.323C192.81 939.17 194.675 936.42 195.435 935.273Z" fill="#5E5E5E"/>
<path d="M180.938 934.718C180.938 934.718 182.789 934.057 183.669 934.83C184.548 935.611 186.012 936.3 186.561 936.026C187.11 935.752 187.652 937.116 186.617 937.447C185.583 937.777 182.029 937.939 182.029 937.939L180.938 934.718Z" fill="#444444"/>
<path d="M178.236 940.337C176.864 940.337 175.745 939.219 175.745 937.847C175.745 936.476 176.864 935.365 178.236 935.365C179.608 935.365 180.727 936.476 180.727 937.847C180.727 939.219 179.608 940.337 178.236 940.337Z" fill="#3D3D3D"/>
<path d="M171.875 939.043C171.875 940.597 173.141 941.863 174.696 941.863C175.85 941.863 176.857 941.16 177.286 940.168C176.913 940.858 176.174 941.315 175.33 941.315C174.091 941.315 173.099 940.309 173.099 939.085C173.099 937.868 174.105 936.856 175.33 936.856C176.237 936.856 177.026 937.404 177.37 938.185C176.997 937.067 175.949 936.258 174.696 936.258C173.141 936.258 171.875 937.517 171.875 939.057V939.043Z" fill="#333333"/>
<path d="M173.085 939.071C173.085 940.309 174.091 941.301 175.316 941.301C176.167 941.301 176.899 940.829 177.272 940.154C177.413 939.81 177.483 939.43 177.483 939.043C177.483 938.741 177.441 938.438 177.342 938.164C176.997 937.376 176.209 936.842 175.302 936.842C174.063 936.842 173.071 937.833 173.071 939.071H173.085Z" fill="#444444"/>
<path d="M188.637 895.509C188.637 895.509 188.637 895.509 188.623 895.509V895.565C188.623 895.565 188.623 895.537 188.637 895.495V895.509Z" fill="#FCD363"/>
<path d="M188.222 892.224V892.267C188.222 892.267 188.264 892.259 188.278 892.245C188.236 892.231 188.222 892.21 188.222 892.21V892.224Z" fill="#FCD363"/>
<path d="M190.016 896.655L190.516 899.271L186.005 901.445C186.005 901.445 185.555 900.369 184.189 900.453L190.016 896.655Z" fill="#683A28"/>
<path d="M191.022 900.108V898.786C191.022 898.66 190.917 898.54 190.776 898.554C190.129 898.681 188.44 899.046 187.335 899.679C185.942 900.502 184.992 901.304 184.992 901.304L185.541 902.57L191.008 900.094L191.022 900.108Z" fill="#FFC1D8"/>
<path d="M211.022 903.414L206.849 901.297C206.356 901.051 205.8 900.938 205.237 900.98L193.443 901.93C193.141 901.958 192.922 902.246 192.993 902.549L193.612 905.095L211.022 903.414Z" fill="#FCD363"/>
<path d="M207.869 933.944L187.785 943.361C187.483 943.502 187.328 943.832 187.398 944.149C187.454 944.423 187.673 944.627 187.947 944.683C188.799 944.859 190.635 945.183 191.409 945.183C196.504 945.183 210.17 938.41 210.17 938.41C210.747 938.185 211.12 937.636 211.134 937.017C211.148 936.455 211.092 935.752 210.761 935.119C210.29 934.155 209.297 933.881 208.692 933.81C208.404 933.768 208.115 933.817 207.855 933.944H207.869Z" fill="#5E5E5E"/>
<path d="M183.007 934.183C183.007 934.183 187.814 938.234 189.798 938.08C190.966 937.981 193.225 934.401 193.443 930.632C193.598 927.945 191.874 924.668 191.874 924.668L183.007 934.183Z" fill="#0C0000"/>
<path d="M191.656 925.898C192.275 925.842 192.634 926.588 192.205 927.052C190.417 928.894 187.18 932.115 185.583 933.037C184.851 933.452 183.092 934.387 182.332 934.028C180.819 933.311 179.313 928.029 179.313 928.029L183.845 926.58L191.67 925.898H191.656Z" fill="#333333"/>
<path d="M188.665 924.822L187.328 927.038C187.328 927.038 183.711 927.298 182.606 927.038C181.558 926.792 179.01 925.167 179.01 925.167L188.665 924.822Z" fill="#444444"/>
<path d="M208.01 920.652C209.853 919.878 207.616 917.424 207.616 917.424L195.463 918.141L184.992 925.223C184.992 925.223 185.766 926.967 186.329 926.995C188.559 927.094 193.591 926.18 193.591 926.18C193.591 926.18 202.83 922.839 208.024 920.652H208.01Z" fill="#0C0000"/>
<path d="M211.021 903.421L212.485 916.432C212.569 917.135 212.063 917.768 211.359 917.838C208.066 918.211 199.255 919.252 196.117 919.625C195.498 919.695 194.935 919.245 194.878 918.612L193.612 905.102L211.021 903.421Z" fill="#FFC400"/>
<path d="M211.19 904.715L211.021 903.421L194.069 905.052L194.231 906.698C194.287 907.303 194.836 907.732 195.442 907.662L210.24 905.932C210.846 905.854 211.261 905.32 211.19 904.715Z" fill="#E2A500"/>
<path d="M189.249 916.038C189.059 916.038 175.583 920.68 174.443 921.763C173.31 922.839 173.05 924.618 173.683 926.405L177.596 937.348C177.722 937.721 178.088 937.953 178.475 937.953L181.466 937.911C181.825 937.911 182.114 937.573 182.071 937.214C181.797 934.901 180.791 927.368 179.292 926.074C179.292 926.074 179.242 925.575 179.742 925.497C180.242 925.427 189.524 925.631 192.571 923.085C195.625 920.539 195.751 917.36 193.521 916.671C191.29 915.982 189.263 916.038 189.263 916.038H189.249Z" fill="#0C513F"/>
<path d="M181.698 937.207C181.698 937.207 182.472 939.781 182.676 940.759C182.838 941.476 183.014 942.412 183.099 942.855C183.127 942.996 183.028 943.115 182.88 943.129L180.98 943.214L180.826 942.756C180.826 942.756 179.432 943.734 177.948 943.832C176.463 943.931 174.809 943.994 174.295 943.636C173.782 943.277 174.035 942.292 175.428 942.236C176.822 942.18 178.405 937.665 178.405 937.665L181.698 937.207Z" fill="#2B2B2B"/>
<path d="M190.157 896.943L190.185 897.752C190.185 897.752 189.094 898.554 187.715 899.201C186.336 899.848 185.111 900.523 185.111 900.523L183.915 900.291L190.171 896.929L190.157 896.943Z" fill="#54281C"/>
<path d="M182.1 900.685C182.775 900.931 184.33 900.474 186.026 899.693C188.412 898.617 191.107 896.901 192.141 895.621C192.198 895.551 192.24 895.495 192.282 895.438C192.395 894.995 192.458 894.531 192.458 894.06V894.018C192.458 890.867 189.897 888.307 186.744 888.307C183.591 888.307 181.227 890.684 181.037 893.687C180.488 896.177 181.107 900.326 182.114 900.685H182.1Z" fill="#FFC400"/>
<path d="M181.023 898.519C181.368 899.539 186.688 896.754 188.602 895.53C188.602 895.53 188.602 895.53 188.616 895.53C188.672 895.241 188.862 894.116 188.792 893.3C188.714 892.555 188.398 892.337 188.271 892.281C188.257 892.281 188.229 892.295 188.215 892.309C185.801 893.427 180.988 893.687 180.988 893.687C180.988 893.687 180.404 896.704 181.023 898.533V898.519Z" fill="#FCD363"/>
<path d="M188.785 893.279C188.855 894.095 188.672 895.22 188.616 895.509C188.947 895.298 189.193 895.129 189.277 895.031C189.911 894.398 190.861 890.431 188.919 891.866C188.729 892.013 188.51 892.147 188.25 892.26C188.398 892.316 188.714 892.534 188.771 893.279H188.785Z" fill="#333333"/>
<path d="M195.033 918.155C195.033 918.296 194.843 918.366 194.759 918.267C194.259 917.74 193.028 916.671 191.156 916.657C187.933 916.629 183.873 917.993 183.873 917.993C183.873 917.993 183.31 915.124 183.197 914.16C183.056 912.81 183.049 908.921 183.049 908.921L193.337 903.083L193.872 903.547C193.872 903.547 194.864 905.932 195.167 911.607C195.237 912.944 195.09 916.875 195.033 918.169V918.155Z" fill="#FFC1D8"/>
<path d="M170.847 909.638L174.12 911.382L173.697 912.634L170.017 910.791L169.918 909.701L170.847 909.638Z" fill="#444444"/>
<path d="M174.014 910.13L170.425 908.71C170.123 908.597 169.785 908.66 169.574 908.893L168.849 909.638C168.589 909.898 168.56 910.299 168.75 910.616L169.44 911.671C169.616 911.931 169.919 912.086 170.235 912.071L171.987 911.973L171.776 911.495L170.636 911.284C170.636 911.284 170.46 910.721 170.679 910.362C170.953 909.933 171.453 910.032 171.453 910.032L173.726 911.178L174.028 910.144L174.014 910.13Z" fill="#683A28"/>
<path d="M193.858 903.526C193.858 903.526 191.909 899.103 188.876 900.094C185.843 901.086 183.859 904.75 183.141 905.242C182.508 905.671 174.879 908.66 173.036 909.378C172.846 909.448 172.796 909.687 172.923 909.828C173.155 910.116 173.444 910.58 173.388 911.122C173.345 911.509 173.282 911.825 173.24 912.036C173.184 912.268 173.338 912.515 173.585 912.543C174.26 912.627 175.555 912.719 176.505 912.43C177.856 912.029 186.132 909.392 187.813 907.641C189.495 905.889 193.872 903.526 193.872 903.526H193.858Z" fill="#FFC1D8"/>
<path d="M173.69 911.896L172.297 911.298L173.212 910.967L173.951 911.235L173.69 911.896Z" fill="#444444"/>
<path d="M173.627 912.62C173.226 912.62 172.895 912.297 172.895 911.889C172.895 911.488 173.226 911.15 173.627 911.15C174.035 911.15 174.366 911.488 174.366 911.889C174.366 912.297 174.035 912.62 173.627 912.62Z" fill="#565656"/>
<path d="M172.417 916.671C171.072 916.671 169.989 916.348 169.989 915.954C169.989 915.553 171.072 915.236 172.417 915.236C173.761 915.236 174.851 915.553 174.851 915.954C174.851 916.348 173.761 916.671 172.417 916.671Z" fill="#E2A500"/>
<path d="M172.311 916.207C171.368 916.207 170.601 916.059 170.601 915.876C170.601 915.693 171.368 915.546 172.311 915.546C173.254 915.546 174.021 915.693 174.021 915.876C174.021 916.059 173.254 916.207 172.311 916.207Z" fill="#FFC400"/>
<path d="M172.304 916.052C171.804 916.052 171.396 915.975 171.396 915.876C171.396 915.785 171.804 915.708 172.304 915.708C172.803 915.708 173.212 915.785 173.212 915.876C173.212 915.975 172.803 916.052 172.304 916.052Z" fill="#E2A500"/>
<path d="M203.513 915.236C205.125 915.236 206.433 913.928 206.433 912.318C206.433 910.707 205.125 909.399 203.513 909.399C201.902 909.399 200.593 910.707 200.593 912.318C200.593 913.928 201.902 915.236 203.513 915.236Z" fill="#0C513F"/>
<path d="M205.174 912.465C204.97 913.211 204.252 913.724 203.457 913.64C203.196 913.612 202.95 913.52 202.739 913.387L201.634 914.027L202.211 912.817C202.056 912.543 201.986 912.212 202.021 911.875C202.113 910.988 202.908 910.348 203.788 910.44C204.625 910.524 205.244 911.242 205.23 912.064C205.146 912.057 204.484 911.98 204.196 911.79C204.055 911.699 203.858 911.537 203.668 911.516C203.379 911.488 203.105 911.678 203.084 912.043C203.07 912.339 203.344 912.55 203.548 912.564C203.83 912.585 203.999 912.43 204.294 912.402C204.583 912.374 205.146 912.465 205.174 912.472V912.465Z" fill="#FFC400"/>
<path d="M1018.83 1006.75L-570.887 1017.71C-570.887 1017.71 -373.065 1004.42 -322.438 999.091C-312.216 998.024 -301.537 981.247 -269.411 990.175C-267.201 987.432 -266.439 982.72 -248.307 979.723C-230.656 976.815 -219.241 976.472 -212.892 977.818C-202.886 967.569 -172.512 965.029 -156.373 973.094C-145.453 963.531 -113.416 964.178 -103.321 974.161C-94.3307 970.274 -84.9088 966.274 -73.4679 964.953C-62.027 963.632 -48.0339 965.969 -43.488 971.633C-35.4882 963.772 -7.89545 965.614 -3.9718 974.364C5.88184 969.335 11.5579 959.479 49.6646 957.524C68.1021 956.571 77.7398 960.724 92.0759 966.972C102.818 955.339 152.455 955.923 159.236 965.677L176.695 959.543C197.101 954.476 214.815 960.813 225.126 959.606C230.56 958.971 235.614 957.778 240.947 956.978C254.267 954.958 269.048 955.568 281.759 958.654C287.181 959.975 302.964 957.473 308.424 955.428C321.161 950.678 337.122 948.316 352.614 948.888C358.785 949.091 364.88 949.789 371.076 949.815C382.86 949.904 389.984 943.452 417.107 946.221L441.69 951.517C480.508 939.185 509.243 943.985 525.751 955.034C538.944 946.716 551.007 946.437 567.172 946.818C591.057 947.376 613.062 954.45 626.903 960.47C632.147 950.678 663.105 944.811 675.105 952.177C677.771 945.611 692.221 941.522 705.326 941.572C718.456 941.636 730.455 944.773 741.871 947.821C748.931 936.073 783.876 931.616 799.71 940.48C814.198 930.028 842.731 931.959 857.892 941.661C862.502 936.645 864.203 936.658 874.298 931.527C883.758 926.713 897.701 924.453 908.202 928.568C913.167 930.523 921.497 931.235 925.027 933.889C926.106 927.958 941.255 923.551 959.019 922.662C1042.76 918.458 1018.92 1006.8 1018.92 1006.8L1018.83 1006.75Z" fill="white"/>
<path d="M1684.49 1008.11L491.821 1068.76C491.821 1068.76 620.731 1007.79 659.511 998.862C667.333 997.084 674.215 973.259 699.84 984.829C701.313 980.93 701.541 974.275 715.331 969.563C728.753 964.979 737.566 964.153 742.619 965.842C749.502 951.212 772.815 946.741 785.983 957.587C793.627 943.884 820.611 941.484 829.296 955.187C835.924 949.472 836.305 948.507 845.067 946.31C853.829 944.112 869.32 944.366 873.32 952.215C878.856 940.976 902.83 938.156 906.614 950.31C913.827 942.944 912.29 936.289 941.635 932.403C955.832 930.523 965.634 931.031 977.266 939.388C984.135 923.894 1010.55 921.595 1027.26 930.231C1029.52 931.4 1032.08 931.26 1034.14 929.812L1043.65 923.157C1059.05 915.487 1073.28 923.818 1081.15 921.824C1085.31 920.783 1089.12 918.966 1093.2 917.684C1103.36 914.471 1112.59 914.382 1123.13 916.122C1131.03 917.442 1140.59 915.207 1144.63 912.185C1154.06 905.162 1166.97 902.749 1179.01 903.066C1183.81 903.18 1188.59 903.968 1193.41 903.803C1202.55 903.574 1206.48 896.043 1227.71 899.142L1241.26 902.634C1243.03 886.924 1292.95 878.669 1306.68 893.655C1316.2 881.59 1322.14 878.657 1337.9 875.825C1359.3 871.951 1371.41 875.621 1382.64 883.635C1385.86 869.767 1412.11 868.332 1422.01 878.276C1423.52 868.979 1434.38 862.858 1444.53 862.54C1454.7 862.248 1464.23 866.274 1473.35 870.249C1477.82 853.574 1504.51 846.31 1517.53 858.26C1527.86 843.198 1550.16 845.078 1562.68 858.21C1565.82 851.06 1567.15 851.021 1574.54 843.528C1581.47 836.518 1592.08 832.937 1600.55 838.385C1604.57 840.976 1611.06 841.763 1614.01 845.357C1614.35 837.039 1625.71 830.422 1639.39 828.631C1703.9 820.275 1684.53 1008.16 1684.53 1008.16L1684.49 1008.11Z" fill="white"/>
</g>
<defs>
<clipPath id="clip0_4_2020">
<rect width="1440" height="1024" fill="white" transform="translate(0 -40)"/>
</clipPath>
</defs>
</svg>
