<svg width="16" height="17" viewBox="0 0 16 17" fill="none" xmlns="http://www.w3.org/2000/svg">
<g clip-path="url(#clip0_4_3357)">
<path d="M12.802 8.89962C12.8154 8.28252 12.9852 7.67892 13.2955 7.14532C13.6057 6.61171 14.0463 6.16556 14.576 5.84863C14.228 5.3742 13.7767 4.98502 13.2564 4.71045C12.736 4.43588 12.16 4.2831 11.572 4.26362C10.308 4.13363 9.08298 5.00163 8.43898 5.00163C7.78298 5.00163 6.79098 4.27562 5.72298 4.29763C4.33198 4.34162 3.03398 5.11362 2.35698 6.30162C0.901979 8.76163 1.98698 12.3776 3.38198 14.3666C4.07898 15.3406 4.89398 16.4286 5.96198 16.3896C7.00498 16.3476 7.39498 15.7396 8.65498 15.7396C9.90298 15.7396 10.269 16.3896 11.358 16.3656C12.478 16.3476 13.183 15.3866 13.857 14.4036C14.3567 13.7122 14.7423 12.9452 14.999 12.1316C13.683 11.5886 12.804 10.2946 12.802 8.89962ZM10.747 2.95563C11.357 2.23962 11.658 1.31963 11.585 0.390625C10.6569 0.483866 9.79651 0.918674 9.17098 1.61063C8.87107 1.94478 8.64059 2.33523 8.49295 2.75927C8.34531 3.1833 8.28345 3.63246 8.31098 4.08063C8.77479 4.08395 9.23362 3.98485 9.65471 3.79038C10.0758 3.59591 10.4488 3.31087 10.747 2.95563Z" fill="#0C513F"/>
</g>
<defs>
<clipPath id="clip0_4_3357">
<rect width="16" height="16" fill="white" transform="translate(0 0.390625)"/>
</clipPath>
</defs>
</svg>
