<svg width="16" height="17" viewBox="0 0 16 17" fill="none" xmlns="http://www.w3.org/2000/svg">
<g clip-path="url(#clip0_4_3348)">
<path d="M7.84799 8.03127L1.06299 15.0613L1.06399 15.0653C1.17339 15.4494 1.40578 15.787 1.7255 16.0263C2.04522 16.2657 2.43462 16.3935 2.83399 16.3903C3.17299 16.3903 3.49099 16.3003 3.76399 16.1443L3.78599 16.1313L11.423 11.8303L7.84799 8.03027V8.03127Z" fill="#EA4335"/>
<path d="M14.7128 6.83484L14.7058 6.83084L11.4088 4.96484L7.69385 8.19084L11.4218 11.8288L14.7018 9.98184C15.2768 9.67884 15.6668 9.08784 15.6668 8.40484C15.6668 7.72784 15.2818 7.13884 14.7128 6.83484Z" fill="#FBBC04"/>
<path d="M1.062 1.7207C1.022 1.8667 1 2.0207 1 2.1807V14.6007C1 14.7607 1.021 14.9157 1.062 15.0607L8.082 8.2117L1.061 1.7207H1.062Z" fill="#4285F4"/>
<path d="M7.89799 8.39062L11.41 4.96363L3.77999 0.646625C3.493 0.478755 3.16647 0.390391 2.83399 0.390625C1.98599 0.390625 1.26999 0.953626 1.06299 1.71763V1.71963L7.89699 8.39062H7.89799Z" fill="#34A853"/>
</g>
<defs>
<clipPath id="clip0_4_3348">
<rect width="16" height="16" fill="white" transform="translate(0 0.390625)"/>
</clipPath>
</defs>
</svg>
