<svg width="25" height="25" viewBox="0 0 25 25" fill="none" xmlns="http://www.w3.org/2000/svg">
<g clip-path="url(#clip0_4_2925)">
<path d="M22.0672 10.6316C22.068 11.401 21.9458 12.1656 21.7054 12.8965C21.1576 14.9229 19.9526 16.7102 18.2792 17.9777H18.2773L12.5698 22.7595L6.33608 17.5421C4.66023 15.8506 3.25828 13.5586 3.12982 10.8951C3.01327 8.49847 3.81235 6.14717 5.36507 4.31782C6.9178 2.48847 9.10801 1.31795 11.4917 1.04351C13.8755 0.769078 16.2744 1.41127 18.2022 2.8399C20.13 4.26854 21.4425 6.37674 21.8736 8.73717C21.8837 8.79252 21.8788 8.84969 21.8592 8.90245C21.9978 9.46841 22.0677 10.049 22.0673 10.6317L22.0672 10.6316Z" fill="#02C27F"/>
<path d="M12.6246 12.5939C14.6796 12.5939 16.3453 10.9281 16.3453 8.8731C16.3453 6.81821 14.6796 5.15234 12.6246 5.15234C10.5697 5.15234 8.90381 6.81808 8.90381 8.8731C8.90381 10.928 10.5695 12.5939 12.6246 12.5939Z" fill="white"/>
</g>
<defs>
<clipPath id="clip0_4_2925">
<rect width="24" height="24" fill="white" transform="translate(0.140625 0.390625)"/>
</clipPath>
</defs>
</svg>
