<svg width="32" height="33" viewBox="0 0 32 33" fill="none" xmlns="http://www.w3.org/2000/svg">
<g clip-path="url(#clip0_4_2774)">
<path d="M18.3108 2.63007L19.0828 4.79949C19.1979 5.12279 19.3795 5.41835 19.6159 5.66708C19.8523 5.91581 20.1383 6.11217 20.4553 6.24349C20.7724 6.37481 21.1135 6.43815 21.4565 6.42944C21.7996 6.42072 22.137 6.34013 22.4469 6.19288L24.527 5.20484C26.6111 4.21413 28.7859 6.38889 27.7952 8.47298L26.8071 10.5531C26.6594 10.863 26.5785 11.2004 26.5696 11.5436C26.5607 11.8868 26.6239 12.228 26.7553 12.5452C26.8867 12.8623 27.0832 13.1483 27.3322 13.3847C27.5811 13.6211 27.877 13.8025 28.2005 13.9172L30.3699 14.6879C32.5434 15.4613 32.5434 18.5361 30.3699 19.3108L28.2005 20.0828C27.8772 20.1979 27.5817 20.3795 27.3329 20.6159C27.0842 20.8523 26.8878 21.1383 26.7565 21.4553C26.6252 21.7724 26.5618 22.1135 26.5706 22.4565C26.5793 22.7996 26.6599 23.137 26.8071 23.4469L27.7952 25.527C28.7859 27.6111 26.6111 29.7859 24.527 28.7952L22.4469 27.8071C22.1371 27.6596 21.7997 27.5788 21.4567 27.5699C21.1136 27.561 20.7725 27.6242 20.4554 27.7554C20.1384 27.8866 19.8523 28.0829 19.6159 28.3316C19.3794 28.5803 19.1978 28.8759 19.0828 29.1992L18.3108 31.3699C17.5374 33.5434 14.4626 33.5434 13.6892 31.3699L12.9172 29.1992C12.802 28.876 12.6203 28.5806 12.3838 28.332C12.1473 28.0834 11.8613 27.8872 11.5443 27.756C11.2273 27.6248 10.8862 27.5616 10.5433 27.5704C10.2003 27.5792 9.86295 27.6598 9.55306 27.8071L7.47298 28.7938C5.38889 29.7859 3.21413 27.6111 4.20484 25.527L5.19288 23.4469C5.34058 23.1368 5.42153 22.7992 5.43048 22.4558C5.43943 22.1125 5.37618 21.7711 5.24484 21.4537C5.11349 21.1363 4.91697 20.8501 4.66799 20.6135C4.41902 20.3768 4.12313 20.1952 3.79949 20.0801L1.63007 19.3094C-0.543356 18.5361 -0.543356 15.4599 1.63007 14.6866L3.79949 13.9159C4.12314 13.8012 4.41912 13.6199 4.66828 13.3837C4.91745 13.1474 5.11425 12.8615 5.24596 12.5444C5.37767 12.2273 5.44136 11.8861 5.43291 11.5429C5.42445 11.1996 5.34405 10.862 5.19688 10.5517L4.20751 8.47164C3.2168 6.38622 5.39156 4.21147 7.47698 5.20218L9.55706 6.19155C9.86688 6.3386 10.2041 6.41907 10.5469 6.42776C10.8898 6.43645 11.2306 6.37316 11.5475 6.24199C11.8643 6.11082 12.1502 5.91468 12.3866 5.66622C12.623 5.41776 12.8046 5.1225 12.9199 4.79949L13.6906 2.63007C14.4613 0.456644 17.5361 0.456644 18.3094 2.63007H18.3108Z" fill="#FF884D"/>
</g>
<defs>
<clipPath id="clip0_4_2774">
<rect width="32" height="32" fill="white" transform="translate(0 0.921875)"/>
</clipPath>
</defs>
</svg>
